<svg role="img" viewBox="0 0 24 24" fill="#0071CE" xmlns="http://www.w3.org/2000/svg">
  <title>Walmart</title>
  <path d="M12.923 15.658l3.666 5.5c.31.464 1.144.57 1.62.253.51-.318.572-1.077.294-1.536l-3.553-5.32c-.524-.766-1.512-1.282-2.12-.916-.622.365-.246 1.54.093 2.019zm10.783-5.263h-6.62c-.93 0-1.78.756-1.78 1.48 0 .736.85 1.503 1.78 1.503h6.62c.594 0 1.077-.457 1.077-1.025 0-.58-.483-1.055-1.077-1.055v-.903zm-20.485.903h6.62c.93 0 1.78-.767 1.78-1.503 0-.724-.85-1.48-1.78-1.48h-6.62C2.627 8.315 2.144 8.79 2.144 9.37s.483 1.025 1.077 1.025v.903zm17.56-5.5l-3.665 5.5c-.31.46-.77 1.042-1.393 1.042-.204 0-.416-.046-.62-.162-.608-.364-.245-1.54.094-2.02l3.64-5.32c.28-.46.804-1.218 1.314-.9 1.135.632.186 1.343-.075 1.737L20.15 5.798zm-16.14 0l3.665 5.5c.34.48-.03 1.656-.638 2.02-.204.116-.416.162-.62.162-.624 0-1.083-.582-1.394-1.043l-3.665-5.5c-.26-.394-1.21-1.104-.074-1.737.51-.318 1.034.44 1.313.9l1.413-.9zm1.413 15.358l3.666-5.5c.34-.48.717-1.654.094-2.02-.608-.366-1.596.15-2.12.917l-3.553 5.32c-.278.46-.216 1.218.293 1.537.476.317 1.31.21 1.62-.254zM12 4.417c-1.053 0-1.58.918-1.58 1.708 0 .777.527 1.696 1.58 1.696 1.053 0 1.58-.92 1.58-1.697 0-.79-.527-1.707-1.58-1.707z"/>
</svg>
